<svg class="gcc-logo" xmlns="http://www.w3.org/2000/svg" viewBox="0 0 144 50">
<path d="M34.2,24.8H45V42c-4.8,5.3-11.4,8-19.9,8C18,50,12,47.6,7.2,42.9C2.4,38.2,0,32.3,0,25.1C0,18,2.5,12,7.4,7.2
	C12.3,2.4,18.2,0,25.1,0c6.9,0,13,2.3,18.1,6.8l-5.6,8.1c-2.2-1.9-4.2-3.2-6-3.9c-1.8-0.7-3.8-1.1-5.9-1.1c-4.1,0-7.6,1.4-10.4,4.2
	c-2.8,2.8-4.2,6.5-4.2,11s1.3,8.2,4,11c2.7,2.7,5.9,4.1,9.6,4.1c3.7,0,6.8-0.7,9.3-2.1V24.8z"/>
<path d="M75.4,39.9c5.3,0,9.6-2.1,13-6.3l6.9,7.1C89.9,46.9,83.4,50,76,50c-7.4,0-13.6-2.4-18.4-7.1c-4.8-4.7-7.2-10.6-7.2-17.8
	c0-7.2,2.5-13.2,7.4-17.9C62.6,2.4,68.6,0,75.7,0c7.9,0,14.6,3,19.9,9.1l-6.7,7.6c-3.4-4.2-7.7-6.4-12.7-6.4c-4.1,0-7.5,1.3-10.4,4
	c-2.9,2.7-4.3,6.2-4.3,10.7c0,4.5,1.4,8.1,4.1,10.8C68.3,38.5,71.6,39.9,75.4,39.9z"/>
<path d="M123.3,39.9c5.3,0,9.6-2.1,13-6.3l6.9,7.1c-5.5,6.2-12,9.3-19.4,9.3c-7.4,0-13.6-2.4-18.4-7.1c-4.8-4.7-7.2-10.6-7.2-17.8
	c0-7.2,2.5-13.2,7.4-17.9c4.9-4.8,10.9-7.2,18-7.2c7.9,0,14.6,3,19.9,9.1l-6.7,7.6c-3.4-4.2-7.7-6.4-12.7-6.4c-4.1,0-7.5,1.3-10.4,4
	c-2.9,2.7-4.3,6.2-4.3,10.7c0,4.5,1.4,8.1,4.1,10.8C116.1,38.5,119.4,39.9,123.3,39.9z"/>
</svg>