<svg style="display:none;">
<defs>

<symbol id="gcc-logo" viewBox="0 0 144 50">
<path d="M34.2,24.8H45V42c-4.8,5.3-11.4,8-19.9,8C18,50,12,47.6,7.2,42.9C2.4,38.2,0,32.3,0,25.1C0,18,2.5,12,7.4,7.2
	C12.3,2.4,18.2,0,25.1,0c6.9,0,13,2.3,18.1,6.8l-5.6,8.1c-2.2-1.9-4.2-3.2-6-3.9c-1.8-0.7-3.8-1.1-5.9-1.1c-4.1,0-7.6,1.4-10.4,4.2
	c-2.8,2.8-4.2,6.5-4.2,11s1.3,8.2,4,11c2.7,2.7,5.9,4.1,9.6,4.1c3.7,0,6.8-0.7,9.3-2.1V24.8z"/>
<path d="M75.4,39.9c5.3,0,9.6-2.1,13-6.3l6.9,7.1C89.9,46.9,83.4,50,76,50c-7.4,0-13.6-2.4-18.4-7.1c-4.8-4.7-7.2-10.6-7.2-17.8
	c0-7.2,2.5-13.2,7.4-17.9C62.6,2.4,68.6,0,75.7,0c7.9,0,14.6,3,19.9,9.1l-6.7,7.6c-3.4-4.2-7.7-6.4-12.7-6.4c-4.1,0-7.5,1.3-10.4,4
	c-2.9,2.7-4.3,6.2-4.3,10.7c0,4.5,1.4,8.1,4.1,10.8C68.3,38.5,71.6,39.9,75.4,39.9z"/>
<path d="M123.3,39.9c5.3,0,9.6-2.1,13-6.3l6.9,7.1c-5.5,6.2-12,9.3-19.4,9.3c-7.4,0-13.6-2.4-18.4-7.1c-4.8-4.7-7.2-10.6-7.2-17.8
	c0-7.2,2.5-13.2,7.4-17.9c4.9-4.8,10.9-7.2,18-7.2c7.9,0,14.6,3,19.9,9.1l-6.7,7.6c-3.4-4.2-7.7-6.4-12.7-6.4c-4.1,0-7.5,1.3-10.4,4
	c-2.9,2.7-4.3,6.2-4.3,10.7c0,4.5,1.4,8.1,4.1,10.8C116.1,38.5,119.4,39.9,123.3,39.9z"/>
</symbol>

<symbol id="circle-chevron" viewBox="0 0 36 36">
<path d="M18,36C8.1,36,0,27.9,0,18S8.1,0,18,0s18,8.1,18,18S27.9,36,18,36z M18,3C9.7,3,3,9.7,3,18s6.7,15,15,15s15-6.7,15-15
	S26.3,3,18,3z"/>
<polygon points="16.1,27.1 13.9,24.9 20.9,18 13.9,11.1 16.1,8.9 25.1,18"/>
</symbol>

<symbol id="magnifying-glass" viewBox="0 0 36 36">
<path d="M25.8,23.6c2-2.5,3.2-5.7,3.2-9.1C29,6.5,22.5,0,14.5,0S0,6.5,0,14.5S6.5,29,14.5,29c3.5,0,6.7-1.2,9.1-3.2L33.9,36l2.1-2.1
	L25.8,23.6z M14.5,26C8.2,26,3,20.8,3,14.5C3,8.2,8.2,3,14.5,3S26,8.2,26,14.5c0,2.6-0.9,5.1-2.4,7c-0.6,0.8-1.3,1.5-2.1,2.1
	C19.6,25.1,17.1,26,14.5,26z"/>
</symbol>

<symbol id="menu" viewBox="0 0 36 36">
<rect y="2" width="36" height="6"/>
<rect y="15" width="36" height="6"/>
<rect y="28" width="36" height="6"/>
</symbol>

<symbol id="circle-x" viewBox="0 0 36 36">
<path d="M18,36C8.1,36,0,27.9,0,18S8.1,0,18,0s18,8.1,18,18S27.9,36,18,36z M18,3C9.7,3,3,9.7,3,18s6.7,15,15,15s15-6.7,15-15
	S26.3,3,18,3z"/>
<polygon points="26.1,12.1 23.9,9.9 18,15.9 12.1,9.9 9.9,12.1 15.9,18 9.9,23.9 12.1,26.1 18,20.1 23.9,26.1 26.1,23.9 20.1,18 "/>
</symbol>

<symbol id="cloud-down" viewBox="0 0 36 36">
<path d="M36,23c0,3.9-3.1,7-7,7H7c-3.9,0-7-3.1-7-7c0-2.8,1.6-5.2,4-6.3C4.2,10.8,9,6,15,6c2.9,0,5.6,1.2,7.6,3.1
	C22.9,9,23.2,9,23.5,9c4.4,0,8,3.4,8.5,7.7C34.3,17.8,36,20.2,36,23z M29,27c2.2,0,4-1.8,4-4c0-1.5-0.9-3-2.3-3.6l-1.5-0.7L29,17
	c-0.3-2.8-2.6-5-5.5-5c-0.2,0-0.4,0-0.6,0l-1.4,0.1l-1-1C19,9.8,17.1,9,15,9c-4.4,0-7.9,3.4-8,7.8L7,18.6l-1.7,0.8
	C3.9,20,3,21.5,3,23c0,2.2,1.8,4,4,4H29z"/>
<polygon points="18,25 24,19 20,19 20,13 16,13 16,19 12,19 "/>
</symbol>

<symbol id="play" viewBox="0 0 36 36">
<polygon points="33,18 3,0 3,36 "/>
</symbol>
	
<symbol id="pause" viewBox="0 0 36 36">
<rect x="2" class="st0" width="13" height="36"/>
<rect x="21" class="st0" width="13" height="36"/>
</symbol>

<symbol id="audio-loader" viewBox="0 0 36 36">
<rect id="rect1" width="6" height="12"/>
<rect id="rect2" x="10" width="6" height="12"/>
<rect id="rect3" x="20" width="6" height="12"/>
<rect id="rect4" x="30" width="6" height="12"/>
<animateTransform xlink:href="#rect1" attributeName="transform" type="scale" values="1,1; 1,3; 1,1" begin="0.3s" dur="1.0s" repeatCount="indefinite" />
<animateTransform xlink:href="#rect2" attributeName="transform" type="scale" values="1,1; 1,3; 1,1" begin="0.1s" dur="0.8s" repeatCount="indefinite" />
<animateTransform xlink:href="#rect3" attributeName="transform" type="scale" values="1,1; 1,3; 1,1" begin="0.0s" dur="0.7s" repeatCount="indefinite" />
<animateTransform xlink:href="#rect4" attributeName="transform" type="scale" values="1,1; 1,3; 1,1" begin="0.2s" dur="0.9s" repeatCount="indefinite" />
</symbol>

<symbol id="volume" viewBox="0 0 36 36">
<polygon points="8,6.6 8,29.4 19,36 19,0"/>
<rect y="7" width="5" height="22"/>
<path d="M32,18c0-6-2.3-11.5-6.1-15.6l3.5-2.1C33.5,5.1,36,11.3,36,18s-2.5,12.9-6.6,17.6l-3.5-2.1C29.7,29.5,32,24,32,18z"/>
<path d="M23.3,4c3.5,3.6,5.7,8.5,5.7,14s-2.2,10.4-5.7,14l-3.6-2.1C23,26.9,25,22.7,25,18s-2-8.9-5.3-11.9L23.3,4z"/>
</symbol>

<symbol id="mute" viewBox="0 0 36 36">
<polygon class="st0" points="8,6.6 8,29.4 19,36 19,0 "/>
<rect y="7" class="st1" width="5" height="22"/>
<polygon class="st0" points="36,13.3 33.2,10.5 28.5,15.2 23.8,10.5 21,13.3 25.7,18 21,22.7 23.8,25.5 28.5,20.8 33.2,25.5 36,22.7 31.3,18"/>
</symbol>

</defs>
</svg>